# xmcd
#
# Track frame offsets:
#     150
#     14252
#     31708
#     43582
#     63542
#     81099
#     92548
#     111718
#     127174
#     144260
#     161148
#     176655
#     188408
#     209215
#     224864
#     242520
#     260723
#     283237
#     296199
#     317613
#     330857
#
# Disc length: 4788
#
# Revision: 0
# Processed by: cddbd v1.5.1PL2 Copyright (c) Steve Scherf et al.
# Submitted via: BonkEnc v1.0beta3
#
DISCID=4712b215
DTITLE=Various Artist - Генералы айчыннага року
DYEAR=2004
DGENRE=Rock
TTITLE0=Neuro Dubel - Belarus Uber Alles
TTITLE1=N.R.M. - Лясная песьня (Ой, бярозы ды сосны)
TTITLE2=Indiga - Тры сонцы
TTITLE3=Garadzkija - Так ці не?
TTITLE4=Znich - Крыжы-абярэгі
TTITLE5=Кася Камоцкая - У небе зьнічаваньняў 33
TTITLE6=Мроя - Я рок-музыкант
TTITLE7=žygimont VAZA - Казарма
TTITLE8=Крама - Mein Faterland, auf wiedersehen
TTITLE9=Tesaŭrus - Аднова тэзаўруса
TTITLE10=Сьцяна - Вясна.by
TTITLE11=ZET - Краіна дурняў
TTITLE12=ULIS - Пакуль сьпяваю
TTITLE13=Deadmarsh - Ня больш за дым
TTITLE14=Куклы - Кібер
TTITLE15=P.L.A.N. - Шынкарачка
TTITLE16=Partyzone - Сьмерці няма
TTITLE17=:Б:Н: - Гарады
TTITLE18=Мясцовы час - Наш шлях
TTITLE19=Стары Ольса - У карчме
TTITLE20=Бонда - Прыйдзе іх дзень
EXTD=
EXTT0=
EXTT1=
EXTT2=
EXTT3=
EXTT4=
EXTT5=
EXTT6=
EXTT7=
EXTT8=
EXTT9=
EXTT10=
EXTT11=
EXTT12=
EXTT13=
EXTT14=
EXTT15=
EXTT16=
EXTT17=
EXTT18=
EXTT19=
EXTT20=
PLAYORDER=
